<svg xmlns="http://www.w3.org/2000/svg" viewBox="0 0 500 500"><g id="freepik--Floor--inject-4"><path d="M401.42,268.25c-84.56-48.82-221.21-48.82-305.22,0s-83.57,128,1,176.8,221.22,48.82,305.23,0S486,317.07,401.42,268.25Z" style="fill:#f5f5f5"></path></g><g id="freepik--Shadows--inject-4"><path d="M282.16,237.06c9.73,5.62,9.79,14.74.11,20.36s-25.41,5.62-35.15,0-9.79-14.74-.11-20.36S272.42,231.44,282.16,237.06Z" style="fill:#e6e6e6"></path><path d="M73.41,396.17l9.07,4.91a5.91,5.91,0,0,0,5.76-.09l127.82-74.14a2.94,2.94,0,0,0-.07-5.13l-12-6.48L73.33,391A3,3,0,0,0,73.41,396.17Z" style="fill:#e6e6e6"></path><path d="M356.82,379.32c-18.77-10.83-49.1-10.83-67.74,0s-18.55,28.41.22,39.25,49.1,10.83,67.74,0S375.59,390.16,356.82,379.32Z" style="fill:#e6e6e6"></path><path d="M428.12,329c-7.5-4.22-19.55-4.1-26.91.28s-7.25,11.36.25,15.59,19.55,4.1,26.91-.29S435.62,333.27,428.12,329Z" style="fill:#e6e6e6"></path></g><g id="freepik--Table--inject-4"><path d="M266.88,169.74H262.4c0,19.26.7,82.68.7,82.68h0a.76.76,0,0,0,.45.63,2.39,2.39,0,0,0,2.18,0,.76.76,0,0,0,.45-.63h0S266.88,189,266.88,169.74Z" style="fill:#e6e6e6"></path><path d="M257.84,161.05h-4.48C249.51,181,247,243.73,247,243.73h0a.82.82,0,0,0,.46.64,2.46,2.46,0,0,0,2.18,0,.79.79,0,0,0,.45-.64h0S254.33,180.7,257.84,161.05Z" style="fill:#e6e6e6"></path><path d="M271.44,161.05h4.48c3.85,19.93,6.35,82.68,6.35,82.68h0a.79.79,0,0,1-.45.64,2.46,2.46,0,0,1-2.18,0,.79.79,0,0,1-.45-.64h0S274.94,180.7,271.44,161.05Z" style="fill:#e6e6e6"></path><g style="opacity:0.1"><path d="M266.88,169.74H262.4c0,19.26.7,82.68.7,82.68h0a.76.76,0,0,0,.45.63,2.39,2.39,0,0,0,2.18,0,.76.76,0,0,0,.45-.63h0S266.88,189,266.88,169.74Z"></path><path d="M257.84,161.05h-4.48C249.51,181,247,243.73,247,243.73h0a.82.82,0,0,0,.46.64,2.46,2.46,0,0,0,2.18,0,.79.79,0,0,0,.45-.64h0S254.33,180.7,257.84,161.05Z"></path><path d="M271.44,161.05h4.48c3.85,19.93,6.35,82.68,6.35,82.68h0a.79.79,0,0,1-.45.64,2.46,2.46,0,0,1-2.18,0,.79.79,0,0,1-.45-.64h0S274.94,180.7,271.44,161.05Z"></path></g><path d="M288.74,160.48h-.47c-.91-2.62-3.12-5.13-6.64-7.16-9.45-5.45-24.71-5.45-34.09,0-3.5,2-5.68,4.54-6.56,7.16h-.45v2.71h0c0,3.58,2.4,7.15,7.12,9.88,9.44,5.45,24.71,5.45,34.09,0,4.69-2.73,7-6.3,7-9.88h0Z" style="fill:#e0e0e0"></path><path d="M281.63,150.61c9.44,5.45,9.49,14.29.11,19.74s-24.65,5.45-34.09,0-9.49-14.29-.11-19.74S272.18,145.15,281.63,150.61Z" style="fill:#ebebeb"></path><path d="M276.47,142.54H252.81c0,7.77,3.63,14.36,4.75,16.32a1.74,1.74,0,0,0,.15.26l.05.09h0a4.84,4.84,0,0,0,1.69,1.5,11.46,11.46,0,0,0,10.42,0,4.34,4.34,0,0,0,1.9-1.94C272.94,156.72,276.47,150.21,276.47,142.54Z" style="fill:#e0e0e0"></path><path d="M273,137.7c4.63,2.67,4.65,7,0,9.68s-12.09,2.68-16.73,0-4.66-7-.05-9.68S268.34,135,273,137.7Z" style="fill:#ebebeb"></path><path d="M263.36,139.48a34,34,0,0,0-3.41-14.6,12.39,12.39,0,0,1-1.62-4.45c-.11-1.58.76-3.38,2.32-3.69a3.31,3.31,0,0,1,3.19,1.52,9.55,9.55,0,0,1,1.26,3.5c1.17,5.47,2.14,11.1,1.4,16.65a7,7,0,0,1-.38,1.88,1.76,1.76,0,0,1-1.35,1.07,1.29,1.29,0,0,1-1.07-.42A2.74,2.74,0,0,1,263.36,139.48Z" style="fill:#ebebeb"></path><path d="M264.66,139.94h0a.19.19,0,0,1-.17-.21A42.41,42.41,0,0,0,261,119a.2.2,0,0,1,.1-.26.19.19,0,0,1,.25.1,42.63,42.63,0,0,1,3.55,20.93A.19.19,0,0,1,264.66,139.94Z" style="fill:#fff"></path><path d="M251.85,131.24c-1-.64-2.23-1.34-2.55-2.52a2.71,2.71,0,0,1,1.2-2.83,4.1,4.1,0,0,1,3.16-.42,8.57,8.57,0,0,1,2.91,1.46,19.44,19.44,0,0,1,4,3.83,20.74,20.74,0,0,1,3.21,5.78,22.45,22.45,0,0,1,1.15,4.16c.18,1.12.51,3-.65,3.71a1.69,1.69,0,0,1-1.7,0,3,3,0,0,1-1.16-1.34,13.42,13.42,0,0,1-.61-1.68,15.74,15.74,0,0,0-3.6-5.9A26.23,26.23,0,0,0,251.85,131.24Z" style="fill:#f5f5f5"></path><path d="M263.78,143.06h0a.24.24,0,0,1-.28-.18,23.17,23.17,0,0,0-12.21-15.68.26.26,0,0,1-.11-.32.25.25,0,0,1,.32-.11,23.67,23.67,0,0,1,12.47,16A.25.25,0,0,1,263.78,143.06Z" style="fill:#fff"></path><path d="M275,128.83c.84-.89,1.81-1.86,1.82-3.08a2.7,2.7,0,0,0-1.88-2.43,4,4,0,0,0-3.16.39,8.39,8.39,0,0,0-2.45,2.15,19.44,19.44,0,0,0-2.91,4.72,20.89,20.89,0,0,0-1.64,6.4,22.16,22.16,0,0,0-.06,4.31c.11,1.13.26,3,1.57,3.44a1.71,1.71,0,0,0,1.64-.46,3,3,0,0,0,.78-1.58,13.38,13.38,0,0,0,.16-1.78,16,16,0,0,1,2-6.62A26.2,26.2,0,0,1,275,128.83Z" style="fill:#f5f5f5"></path><path d="M266.44,143.29h0a.24.24,0,0,0,.22-.25,23.16,23.16,0,0,1,7.85-18.26.24.24,0,0,0-.31-.36,23.67,23.67,0,0,0-8,18.65A.24.24,0,0,0,266.44,143.29Z" style="fill:#fff"></path></g><g id="freepik--Pictures--inject-4"><polygon points="394.73 95.77 428.26 115.12 428.19 140.75 394.66 121.39 394.73 95.77" style="fill:none"></polygon><polygon points="394.73 95.77 394.66 121.39 391.56 123.2 391.64 93.98 394.73 95.77" style="fill:#f0f0f0"></polygon><polygon points="428.19 140.75 428.18 144.34 391.56 123.2 394.66 121.39 428.19 140.75" style="fill:#f5f5f5"></polygon><path d="M387.79,125.34l44.13,25.48L432,113,387.9,87.51Zm3.77-2.14L391.64,94l3.09,1.79,33.53,19.35-.07,25.63v3.59Z" style="fill:#e0e0e0"></path><polygon points="387.9 87.51 391 85.7 435.13 111.18 432.03 112.98 387.9 87.51" style="fill:#f5f5f5"></polygon><polygon points="435.13 111.18 435.03 149.01 431.92 150.82 432.03 112.98 435.13 111.18" style="fill:#f0f0f0"></polygon><polygon points="340.18 64.42 373.71 83.78 373.64 109.4 340.11 90.04 340.18 64.42" style="fill:none"></polygon><polygon points="340.18 64.42 340.11 90.04 337 91.85 337.08 62.63 340.18 64.42" style="fill:#f0f0f0"></polygon><polygon points="373.64 109.4 373.63 112.99 337 91.85 340.11 90.04 373.64 109.4" style="fill:#f5f5f5"></polygon><path d="M333.24,94l44.13,25.48.1-37.83L333.34,56.16ZM337,91.85l.08-29.22,3.1,1.79,33.53,19.36-.07,25.62V113Z" style="fill:#e0e0e0"></path><polygon points="333.34 56.16 336.45 54.35 380.58 79.83 377.47 81.64 333.34 56.16" style="fill:#f5f5f5"></polygon><polygon points="380.58 79.83 380.47 117.67 377.37 119.47 377.47 81.64 380.58 79.83" style="fill:#f0f0f0"></polygon><polygon points="405.39 105.5 396.24 112.69 396.22 119.73 426.63 137.29 426.65 130.25 420.86 118.74 415.65 122.78 417.5 128.5 414.82 123.42 405.39 105.5" style="fill:#e0e0e0"></polygon><path d="M415.38,109c-1.44-.83-2.6-.16-2.6,1.48a5.69,5.69,0,0,0,2.58,4.48c1.43.82,2.6.16,2.6-1.48A5.71,5.71,0,0,0,415.38,109Z" style="fill:#e0e0e0"></path><polygon points="350.83 74.15 341.69 81.35 341.67 88.38 372.08 105.94 372.1 98.91 366.31 87.39 361.1 91.43 362.94 97.15 360.27 92.08 350.83 74.15" style="fill:#e0e0e0"></polygon><path d="M360.82,77.69c-1.43-.82-2.59-.16-2.6,1.48a5.7,5.7,0,0,0,2.59,4.48c1.43.83,2.59.16,2.6-1.48A5.72,5.72,0,0,0,360.82,77.69Z" style="fill:#e0e0e0"></path></g><g id="freepik--Plant--inject-4"><path d="M432.5,304.23l-18.05.71-18.05-.33c-.65,12.19,1.86,24.59,5.21,30.62h0a8.2,8.2,0,0,0,3.61,3.6c5.36,3,14,2.93,19.22-.2a8,8,0,0,0,3.53-3.77C431.17,328.72,433.4,316.35,432.5,304.23Z" style="fill:#fff"></path><path d="M427.09,296.89c7.11,4,7.22,10.63.24,14.78s-18.41,4.28-25.52.27-7.23-10.62-.24-14.78S420,292.88,427.09,296.89Z" style="fill:#ebebeb"></path><path d="M424.31,298.55c5.55,3.12,5.63,8.29.19,11.53s-14.36,3.34-19.92.21S399,302,404.4,298.76,418.76,295.42,424.31,298.55Z" style="fill:#e0e0e0"></path><g style="opacity:0.15"><path d="M424.31,298.55c5.55,3.12,5.63,8.29.19,11.53s-14.36,3.34-19.92.21S399,302,404.4,298.76,418.76,295.42,424.31,298.55Z"></path></g><path d="M443.31,227.09c-40.53,13.75-40.61,41-31.24,60.24,2.35,3.9,9.37,5.93,15.21-18.23l-10.67,1.48L429,264.14l3.14-9.7-10.38.88,13.12-5.68A194.3,194.3,0,0,1,443.31,227.09Z" style="fill:#35296D"></path><path d="M443.31,227.09c-40.53,13.75-40.61,41-31.24,60.24,2.35,3.9,9.37,5.93,15.21-18.23l-10.67,1.48L429,264.14l3.14-9.7-10.38.88,13.12-5.68A194.3,194.3,0,0,1,443.31,227.09Z" style="opacity:0.2"></path><path d="M443.31,227.09c-40.53,13.75-40.61,41-31.24,60.24,2.35,3.9,9.37,5.93,15.21-18.23l-10.67,1.48L429,264.14l3.14-9.7-10.38.88,13.12-5.68A194.3,194.3,0,0,1,443.31,227.09Z" style="fill:#fff;opacity:0.2"></path><path d="M431.88,234c-21.28,16.5-23,35.18-16.75,54.6C412.8,271.49,410.3,254.17,431.88,234Z" style="fill:#fff"></path><path d="M374.71,255.46c40.15,5.22,45.28,30.45,40.17,50.07-1.46,4.06-7.59,7.24-17.5-14.08l10.17-.61-12.68-3.68-4.7-8.41,9.78-1.11-13.22-2.83A184,184,0,0,0,374.71,255.46Z" style="fill:#35296D"></path><path d="M374.71,255.46c40.15,5.22,45.28,30.45,40.17,50.07-1.46,4.06-7.59,7.24-17.5-14.08l10.17-.61-12.68-3.68-4.7-8.41,9.78-1.11-13.22-2.83A184,184,0,0,0,374.71,255.46Z" style="fill:#fff;opacity:0.2"></path><path d="M374.71,255.46c40.15,5.22,45.28,30.45,40.17,50.07-1.46,4.06-7.59,7.24-17.5-14.08l10.17-.61-12.68-3.68-4.7-8.41,9.78-1.11-13.22-2.83A184,184,0,0,0,374.71,255.46Z" style="opacity:0.1"></path><path d="M386.6,259.76c22.8,11.36,27.89,28.36,25.69,47.54C411.26,291,410.36,274.44,386.6,259.76Z" style="fill:#fff"></path><path d="M455.43,264.08c-36.76,1-43.73,23.3-40.94,41.51.94,3.8,6.19,7.25,17.12-11.1L422.48,293l11.8-2.15,5-7.16-8.74-1.91,12.21-1.34A167.38,167.38,0,0,1,455.43,264.08Z" style="fill:#35296D"></path><path d="M444.29,266.86c-21.65,8.14-27.83,23-27.62,40.57C419.12,292.78,421.46,277.92,444.29,266.86Z" style="fill:#fff"></path><path d="M455.43,264.08c-36.76,1-43.73,23.3-40.94,41.51.94,3.8,6.19,7.25,17.12-11.1L422.48,293l11.8-2.15,5-7.16-8.74-1.91,12.21-1.34A167.38,167.38,0,0,1,455.43,264.08Z" style="fill:#fff;opacity:0.2"></path></g><g id="freepik--Device--inject-4"><path d="M214.09,53.1h0c-.88-3.06-7.09-8.88-13.27-8.75a5.16,5.16,0,0,0-1.74.34L79,113a11.62,11.62,0,0,0-5.81,10v259.8c0,6.61,7.63,12.93,14.79,9.89l0,0a2.62,2.62,0,0,0,.46-.19L208.59,324a11.49,11.49,0,0,0,5.8-10V54.35A2.84,2.84,0,0,0,214.09,53.1Z" style="fill:#35296D"></path><path d="M214.09,53.1h0c-.88-3.06-7.09-8.88-13.27-8.75a5.16,5.16,0,0,0-1.74.34L79,113a11.62,11.62,0,0,0-5.81,10v259.8c0,6.61,7.63,12.93,14.79,9.89l0,0a2.62,2.62,0,0,0,.46-.19L208.59,324a11.49,11.49,0,0,0,5.8-10V54.35A2.84,2.84,0,0,0,214.09,53.1Z" style="opacity:0.30000000000000004"></path><path d="M89.93,150.45a5.74,5.74,0,0,1,2.91-5L204.36,82a2.87,2.87,0,0,1,4.29,2.5V294a5.75,5.75,0,0,1-2.9,5L94.23,362.54a2.88,2.88,0,0,1-4.3-2.5Z" style="fill:#455a64"></path><path d="M73.18,123v259.8c0,6.61,7.63,12.93,14.79,9.89l0,0A2.85,2.85,0,0,1,84.19,390V130.17a11.45,11.45,0,0,1,1.94-6.34L74.37,118A11.43,11.43,0,0,0,73.18,123Z" style="opacity:0.30000000000000004"></path><path d="M200.83,44.34a5.16,5.16,0,0,0-1.74.34L79,113A11.4,11.4,0,0,0,74.37,118l11.76,5.88A11.45,11.45,0,0,1,90,120.19L210.1,51.86a2.86,2.86,0,0,1,4,1.24h0C213.22,50,207,44.21,200.83,44.34Z" style="fill:#fff;opacity:0.1"></path><path d="M164.09,94.76c.85-.49,1.55-.11,1.55.86a3.39,3.39,0,0,1-1.54,2.65l-23.56,13.61c-.84.49-1.52.08-1.53-.89a3.36,3.36,0,0,1,1.52-2.63Z" style="fill:#263238"></path><path d="M134.48,111.85c.84-.48,1.52-.1,1.53.87a3.38,3.38,0,0,1-1.52,2.65c-.85.49-1.54.09-1.55-.88A3.37,3.37,0,0,1,134.48,111.85Z" style="fill:#263238"></path><path d="M149.56,92.78c1.69-1,3.05-.2,3.05,1.74a6.73,6.73,0,0,1-3,5.29c-1.68,1-3.08.17-3.09-1.76A6.76,6.76,0,0,1,149.56,92.78Z" style="fill:#263238"></path><path d="M149.57,337.35c3.43-2,6.2-.4,6.21,3.54a13.72,13.72,0,0,1-6.17,10.78c-3.43,2-6.28.36-6.29-3.58A13.73,13.73,0,0,1,149.57,337.35Z" style="fill:#263238"></path></g><g id="freepik--Character--inject-4"><path d="M292.38,393.45a9.41,9.41,0,0,0,7.07,2.6,21.37,21.37,0,0,0,7.49-1.89c2.39-1,5.39-3.73,8-3.68a63.74,63.74,0,0,0,7.57-.52,39.39,39.39,0,0,0-1.08-10.25l-12.08-.32c-3.26,4.47-9.6,8.18-14.4,9.58a4.22,4.22,0,0,0-3,3.17.22.22,0,0,1,0,.08A5.12,5.12,0,0,0,292.38,393.45Z" style="fill:#37474f"></path><path d="M314.92,390.48c-2.59-.05-5.59,2.7-8,3.68a21.37,21.37,0,0,1-7.49,1.89,9.41,9.41,0,0,1-7.07-2.6,5.12,5.12,0,0,1-.42-1.23.22.22,0,0,0,0-.08,4,4,0,0,0,0,1.61,5.12,5.12,0,0,0,.42,1.23,9.41,9.41,0,0,0,7.07,2.6,21.35,21.35,0,0,0,7.49-1.88c2.39-1,5.39-3.74,8-3.69a56.42,56.42,0,0,0,7.45-.43c.06-.54.09-1.08.12-1.62A63.74,63.74,0,0,1,314.92,390.48Z" style="fill:#263238"></path><path d="M352.13,400.18a18.52,18.52,0,0,1-.39,3.93,9.12,9.12,0,0,1-3.59,5.73,11.6,11.6,0,0,1-5.71,1.52,12.75,12.75,0,0,1-5.22-.54,5.87,5.87,0,0,1-3.06-2.5.17.17,0,0,0,0,.07,5.46,5.46,0,0,0,3.52,3.66,12.59,12.59,0,0,0,5.22.54,11.47,11.47,0,0,0,5.71-1.52,9.11,9.11,0,0,0,3.6-5.73,19.92,19.92,0,0,0,.39-3.93,6.64,6.64,0,0,1,2.1-4.81,11.61,11.61,0,0,0,.92-.94,2.33,2.33,0,0,0,.56-1.72c0-.24,0-.48-.07-.72-.48.56-1.6,1.89-1.88,2.15A6.69,6.69,0,0,0,352.13,400.18Z" style="fill:#263238"></path><path d="M342.22,386.48a14.37,14.37,0,0,1-1,8,30.31,30.31,0,0,1-4.22,6.94,20.87,20.87,0,0,0-2.21,3.22,5.73,5.73,0,0,0-.62,3.71,5.87,5.87,0,0,0,3.06,2.5,12.75,12.75,0,0,0,5.22.54,11.6,11.6,0,0,0,5.71-1.52,9.12,9.12,0,0,0,3.59-5.73,18.52,18.52,0,0,0,.39-3.93,6.69,6.69,0,0,1,2.11-4.81c.28-.26,1.4-1.59,1.88-2.15a14.66,14.66,0,0,0-1.94-5.56Z" style="fill:#37474f"></path><path d="M308.83,273.5s-3.06,40.12-2.79,51.28,1.39,55.27,1.39,55.27c6.25,3.65,15.28.93,15.28.93.73-35.21,4.05-42.78,1.8-55.67,1.59-9.57,3.79-31.86,3.79-31.86,3.11,26.81,5.37,40.63,5.37,40.63l7.44,53.67c6.11,3.19,13.82,0,13.82,0,0-30.59.66-43.53-2.52-63.73-.17-31.09-1.75-50-1.75-50Z" style="fill:#455a64"></path><path d="M316.22,283.86c2.13,5.23,8.82,5.23,8.82,5.23l1.19,5.94-.44,21.13c1.28-10.28,2.51-22.71,2.51-22.71l-.83-6.36A17.66,17.66,0,0,1,316.22,283.86Z" style="opacity:0.2"></path><path d="M288.61,228.7,283.82,233l-13.26-14.22a10.94,10.94,0,0,1-2.63-4.9l-.75-3.15a8.56,8.56,0,0,0-.94-2.35c-.65-1.12-1.34-2.24-1.93-3.34a1.85,1.85,0,0,0-.76-.87,1.11,1.11,0,0,0-1.23.3,1.87,1.87,0,0,0-.43,1.27,5.65,5.65,0,0,0,.25,1.34c.18.68.36,1.36.55,2a2.8,2.8,0,0,1,.13.86.91.91,0,0,1-.39.75c-.57.35-8.74-7.25-10.11-10.72-.37-.94-3.3-.39-1.53,3.4a2.64,2.64,0,0,0-.93,2.15c-.06,1-.11,2.07-.17,3.1a11.53,11.53,0,0,0,.12,3,9.34,9.34,0,0,0,2.23,3.92,18.79,18.79,0,0,0,6.67,4.76,11.06,11.06,0,0,1,4.71,4l12.68,19.12a9.09,9.09,0,0,0,13.29,2l6.7-5.42Z" style="fill:#ffa8a7"></path><path d="M311.58,210.87c-6.51-.37-8.22,3-12.33,6.86S287.4,229,287.4,229A15.49,15.49,0,0,0,296,241.15l14.33-10.57Z" style="fill:#455a64"></path><path d="M351.74,276.54s-24.26,8.87-44-2.19c0,0,1.2-14.12,1.55-22.35s-2.48-24.12-2.9-28.38.14-11.63,5.16-12.75c9.31-2,26.81,0,26.81,0l10.45,11.55C353.24,245,352.49,268.66,351.74,276.54Z" style="fill:#35296D"></path><path d="M351.74,276.54s-24.26,8.87-44-2.19c0,0,1.2-14.12,1.55-22.35s-2.48-24.12-2.9-28.38.14-11.63,5.16-12.75c9.31-2,26.81,0,26.81,0l10.45,11.55C353.24,245,352.49,268.66,351.74,276.54Z" style="fill:#fff;opacity:0.30000000000000004"></path><g style="isolation:isolate"><path d="M290.24,271.29v0h0v0s0,0,0-.05l0-.05s0,0,0-.05l0,0,0-.05s0,0,0-.05h0l-9.65-18.46,0-.05,0,0,0-.06,0-.06,0-.06,0-.06,0-.06,0,0,0-.06,0-.05,0,0,0,0,0,0,0,0,0,0,0,0,0,0,0,0,0,0,0,0,0,0,0,0,0,0v0l0,0h0l0,0,0,0,0,0,0,0,0,0,0,0,0,0,0,0,0,0,0,0a.86.86,0,0,0-.14-.13l0,0,0,0,0,0,0,0,0,0,0,0h0l0,0,0,0h0l0,0,0,0h0l0,0h0l0,0,0,0h0l0,0,0,0,0,0,0,0,0,0,0,0,0,0,0,0-.05,0-.05,0-.05,0-.06,0-.06,0-.07,0,0,0-11.26-6.51h0l-.07,0-.06,0-.06,0-.06,0-.06,0-.06,0-.06,0-.06,0-.06,0h-.21a.21.21,0,0,0-.17.07l-1.37,1.53h0c-.11.09-.12.27,0,.57l9.65,18.46a6.34,6.34,0,0,0,2.15,2.09l11.26,6.5c.58.33.93.35,1,.11,0,0,0,.08,0,.1h0l1.37-1.53a.16.16,0,0,0,0-.07s0,0,0-.06ZM265,245.15s0,0,.08,0h0l0,0Zm12.92,7.46.31.27h0Zm.7.7.13.15h0Zm10.27,19.52a.94.94,0,0,0-.11-.36,1.7,1.7,0,0,1,.12.33h0Z" style="fill:#455a64"></path></g><path d="M290.24,271.29v0h0v0s0,0,0-.05l0-.05s0,0,0-.05l0,0,0-.05s0,0,0-.05h0l-9.65-18.46L279.09,254l9.66,18.47a1.7,1.7,0,0,1,.12.33h0a.24.24,0,0,1-.05.2h0l1.37-1.53a.16.16,0,0,0,0-.07s0,0,0-.06Z" style="fill:#fff;opacity:0.15"></path><path d="M280.43,252.42l0,0,0-.06,0-.06,0-.06,0-.06,0-.06,0,0,0-.06,0-.05,0,0,0,0,0,0,0,0,0,0,0,0,0,0,0,0,0,0,0,0,0,0,0,0,0,0v0l0,0h0l0,0,0,0,0,0,0,0,0,0,0,0,0,0,0,0,0,0,0,0a.86.86,0,0,0-.14-.13l0,0,0,0,0,0,0,0,0,0,0,0h0l0,0,0,0h0l0,0,0,0h0l0,0h0l0,0,0,0h0l0,0,0,0,0,0,0,0,0,0,0,0,0,0,0,0-.05,0-.05,0-.05,0-.06,0-.06,0-.07,0,0,0-11.26-6.51h0l-.07,0-.06,0-.06,0-.06,0-.06,0-.06,0-.06,0-.06,0-.06,0h-.21a.21.21,0,0,0-.17.07l-1.37,1.53c.06-.07.17-.08.33-.05h0a2.31,2.31,0,0,1,.62.27l11.26,6.5a7.17,7.17,0,0,1,.64.43h0c.21.17.42.35.62.54h0a6.79,6.79,0,0,1,.52.58h0a4.21,4.21,0,0,1,.36.54l1.37-1.53Z" style="fill:#fff;opacity:0.2"></path><path d="M281.09,271.2c-3.81-2.39-6.65-7.05-6.08-11.51,0,0,7.12,3.73,10.31,1.74l-1.64-3.13a19.48,19.48,0,0,1,12.37,4.35,91.12,91.12,0,0,0,19.77-5.73,40.45,40.45,0,0,1,5.71-2,10.35,10.35,0,0,1,6,.16,6,6,0,0,1,3.87,4.33,6.41,6.41,0,0,1-2.21,5.62,15.81,15.81,0,0,1-5.52,3C315.47,270.91,284.89,273.59,281.09,271.2Z" style="fill:#ffa8a7"></path><path d="M303.91,192.43a9.87,9.87,0,0,1-2.74-13,5.37,5.37,0,0,1-2.6-2.44,2.87,2.87,0,0,1,3.73-3.83,4,4,0,0,1,1.6-4.7,3.8,3.8,0,0,1,4.73.88,2.56,2.56,0,0,1,1.75-2.53,5.21,5.21,0,0,1,3.28.2c1,.36,2,.89,3.11,1.22a24.17,24.17,0,0,0,5.58.72,11.24,11.24,0,0,1,5.39,1.43c1.58,1,3,3.41,2.12,5.47a3.11,3.11,0,0,1,2.24-1.19,3,3,0,0,1,2.3,1c-1.17.73-2.31,1.51-3.48,2.24a3.17,3.17,0,0,1,3.58,1.43,7.12,7.12,0,0,1,.63,3.78,50.31,50.31,0,0,1-2.6,14.48c-.8,2.42-2,5-4.25,6.09Z" style="fill:#37474f"></path><path d="M316.37,204.06l.51,5.77a2.24,2.24,0,0,1-.32,1.28,3.27,3.27,0,0,0,.5,3.77,4.29,4.29,0,0,0,2.58.87,12.44,12.44,0,0,0,9.54-3.68,2.67,2.67,0,0,0,.76-2l-.38-14.64Z" style="fill:#ffa8a7"></path><path d="M328.4,196.21l-12,7.85.45,5.12c2.8-.66,5.62-1.46,7.83-3.26A10.75,10.75,0,0,0,328.4,196.21Z" style="opacity:0.30000000000000004"></path><path d="M303.25,180.54a51.59,51.59,0,0,0,1.29,20,15.65,15.65,0,0,0,1.59,4.11,6.67,6.67,0,0,0,3.25,2.89,10.29,10.29,0,0,0,5.37,0c3.27-.57,6.62-1.18,9.46-2.9s5.08-4.82,4.81-8.13a5.66,5.66,0,0,0,5.42.3,5.72,5.72,0,0,0,3-4.59c.13-1.86-.94-3.92-2.76-4.28a4,4,0,0,0-3.16.92,11.83,11.83,0,0,0-2.21,2.57,3.88,3.88,0,0,1-1.1,1.18,1.32,1.32,0,0,1-1.51,0,2,2,0,0,1-.43-1.65l.19-4.19a1.67,1.67,0,0,0-.93-1.56,4.12,4.12,0,0,1-1.88-2.16,8.65,8.65,0,0,1-.53-2.52,1,1,0,0,0-1.41-.88A30.89,30.89,0,0,1,303.25,180.54Z" style="fill:#ffa8a7"></path><polygon points="312.46 190.7 308.7 197.04 313.19 197.89 312.46 190.7" style="fill:#f28f8f"></polygon><path d="M317.52,200.07l-3.41,1.66a2.22,2.22,0,0,0,2.59.74A2,2,0,0,0,317.52,200.07Z" style="fill:#f28f8f"></path><path d="M317.52,200.07l-3.41,1.66a2.22,2.22,0,0,0,2.59.74A2,2,0,0,0,317.52,200.07Z" style="opacity:0.30000000000000004"></path><path d="M315.51,202.58a2,2,0,0,0,1.19-.11,1.83,1.83,0,0,0,.91-1.8,2.13,2.13,0,0,0-1.35.47A2.17,2.17,0,0,0,315.51,202.58Z" style="fill:#f28f8f"></path><path d="M319,191a1.29,1.29,0,0,1-1.15,1.42,1.31,1.31,0,0,1-1.42-1.16A1.29,1.29,0,0,1,319,191Z" style="fill:#263238"></path><path d="M308.15,191.62a1.29,1.29,0,1,1-1.41-1.15A1.28,1.28,0,0,1,308.15,191.62Z" style="fill:#263238"></path><path d="M306.39,186.64l-2.65,2.25a1.84,1.84,0,0,1,.35-2.07A2.19,2.19,0,0,1,306.39,186.64Z" style="fill:#263238"></path><path d="M317.37,185.38l3,1.68a1.85,1.85,0,0,0-.76-2A2.16,2.16,0,0,0,317.37,185.38Z" style="fill:#263238"></path><path d="M325.85,241.84l-5.81,15,6.41,10c9.34-4.24,7.42-3,13.88-18.64Z" style="fill:#ffa8a7"></path><path d="M338.39,210.87c-7,8.28-9.63,22.51-13.25,31.66,4.05,7.66,15.33,6.92,15.33,6.92C350.79,228,355.16,211.74,338.39,210.87Z" style="fill:#455a64"></path></g></svg>